<svg xmlns="http://www.w3.org/2000/svg" xmlns:xlink="http://www.w3.org/1999/xlink" width="500" zoomAndPan="magnify" viewBox="0 0 375 374.999991" height="500" preserveAspectRatio="xMidYMid meet" version="1.0"><defs><clipPath id="8c6dfaf95d"><path d="M 0 40.378906 L 375 40.378906 L 375 337.378906 L 0 337.378906 Z M 0 40.378906 " clip-rule="nonzero"/></clipPath></defs><g clip-path="url(#8c6dfaf95d)"><path fill="#f2a323" d="M -147.691406 337.300781 L -7.355469 337.300781 C -7.355469 337.300781 -63.503906 285.4375 -60.015625 246.722656 C -46.722656 192.535156 9.425781 198.128906 27.074219 251.078125 C 35.066406 274.976562 37.609375 309.042969 38.1875 337.300781 L 101.238281 337.300781 C 99.421875 299.964844 100.585938 257.617188 110.535156 227.035156 C 136.539062 147.570312 238.449219 147.570312 264.453125 227.035156 C 278.617188 270.328125 247.019531 308.753906 216.078125 337.300781 L 356.414062 337.300781 C 304.257812 218.757812 419.535156 165.148438 436.023438 251.078125 C 440.601562 274.976562 438.347656 309.042969 434.863281 337.300781 L 491.375 337.300781 C 494.933594 317.980469 499.652344 297.203125 505.828125 281.804688 C 521.226562 242.945312 539.097656 248.539062 539.097656 248.539062 C 539.097656 248.539062 545.199219 246.867188 550.71875 251.804688 L 550.71875 228.851562 C 301.28125 95.636719 77.632812 93.53125 -175.726562 228.925781 L -175.726562 251.878906 C -128.367188 227.617188 -132.289062 302.289062 -147.691406 337.300781 Z M -101.636719 108.058594 C -88.054688 108.058594 -77.011719 119.097656 -77.011719 132.679688 C -77.011719 146.265625 -88.054688 157.304688 -101.636719 157.304688 C -115.21875 157.304688 -126.261719 146.265625 -126.261719 132.679688 C -126.261719 119.097656 -115.21875 108.058594 -101.636719 108.058594 Z M 476.554688 108.058594 C 490.136719 108.058594 501.179688 119.097656 501.179688 132.679688 C 501.179688 146.265625 490.136719 157.304688 476.554688 157.304688 C 462.972656 157.304688 451.929688 146.265625 451.929688 132.679688 C 451.929688 119.097656 462.972656 108.058594 476.554688 108.058594 Z M 63.46875 40.578125 C 82.570312 40.578125 98.042969 56.046875 98.042969 75.152344 C 98.042969 94.253906 82.570312 109.726562 63.46875 109.726562 C 44.363281 109.726562 28.890625 94.253906 28.890625 75.152344 C 28.890625 56.046875 44.4375 40.578125 63.46875 40.578125 Z M 311.449219 40.578125 C 330.554688 40.578125 346.027344 56.046875 346.027344 75.152344 C 346.027344 94.253906 330.554688 109.726562 311.449219 109.726562 C 292.347656 109.726562 276.875 94.253906 276.875 75.152344 C 276.875 56.046875 292.347656 40.578125 311.449219 40.578125 Z M 311.449219 40.578125 " fill-opacity="1" fill-rule="evenodd"/></g></svg>