<svg xmlns="http://www.w3.org/2000/svg" xmlns:xlink="http://www.w3.org/1999/xlink" width="500" zoomAndPan="magnify" viewBox="0 0 375 374.999991" height="500" preserveAspectRatio="xMidYMid meet" version="1.0"><defs><clipPath id="759d753d5b"><path d="M 0 110.8125 L 375 110.8125 L 375 264.5625 L 0 264.5625 Z M 0 110.8125 " clip-rule="nonzero"/></clipPath></defs><g clip-path="url(#759d753d5b)"><path fill="#f2a323" d="M 14.472656 264.085938 L 86.917969 264.085938 C 86.917969 264.085938 57.933594 237.3125 59.730469 217.328125 C 66.59375 189.355469 95.578125 192.242188 104.691406 219.578125 C 108.8125 231.914062 110.125 249.5 110.425781 264.085938 L 142.972656 264.085938 C 142.035156 244.8125 142.636719 222.953125 147.773438 207.167969 C 161.195312 166.144531 213.804688 166.144531 227.226562 207.167969 C 234.539062 229.515625 218.226562 249.351562 202.253906 264.085938 L 274.699219 264.085938 C 247.773438 202.890625 307.28125 175.21875 315.792969 219.578125 C 318.15625 231.914062 316.992188 249.5 315.195312 264.085938 L 344.367188 264.085938 C 346.203125 254.113281 348.640625 243.386719 351.828125 235.4375 C 359.777344 215.378906 369 218.265625 369 218.265625 C 369 218.265625 372.148438 217.402344 375 219.953125 L 375 208.105469 C 246.238281 139.335938 130.785156 138.25 0 208.140625 L 0 219.992188 C 24.449219 207.464844 22.421875 246.011719 14.472656 264.085938 Z M 38.246094 145.746094 C 45.257812 145.746094 50.957031 151.449219 50.957031 158.460938 C 50.957031 165.472656 45.257812 171.171875 38.246094 171.171875 C 31.234375 171.171875 25.535156 165.472656 25.535156 158.460938 C 25.535156 151.449219 31.234375 145.746094 38.246094 145.746094 Z M 336.714844 145.746094 C 343.726562 145.746094 349.425781 151.449219 349.425781 158.460938 C 349.425781 165.472656 343.726562 171.171875 336.714844 171.171875 C 329.703125 171.171875 324.003906 165.472656 324.003906 158.460938 C 324.003906 151.449219 329.703125 145.746094 336.714844 145.746094 Z M 123.476562 110.914062 C 133.335938 110.914062 141.324219 118.902344 141.324219 128.761719 C 141.324219 138.625 133.335938 146.609375 123.476562 146.609375 C 113.613281 146.609375 105.625 138.625 105.625 128.761719 C 105.625 118.902344 113.652344 110.914062 123.476562 110.914062 Z M 251.488281 110.914062 C 261.347656 110.914062 269.335938 118.902344 269.335938 128.761719 C 269.335938 138.625 261.347656 146.609375 251.488281 146.609375 C 241.625 146.609375 233.640625 138.625 233.640625 128.761719 C 233.640625 118.902344 241.625 110.914062 251.488281 110.914062 Z M 251.488281 110.914062 " fill-opacity="1" fill-rule="evenodd"/></g></svg>